<svg width="56" height="40" viewBox="0 0 56 40" fill="none" xmlns="http://www.w3.org/2000/svg">
<rect width="56" height="40" rx="16" fill="#0F69C4"/>
<path d="M28 4.6665C20.64 4.6665 14.6667 10.6398 14.6667 17.9998C14.6667 25.3598 20.64 31.3332 28 31.3332C35.36 31.3332 41.3334 25.3598 41.3334 17.9998C41.3334 10.6398 35.36 4.6665 28 4.6665ZM21.4267 26.3732C22 25.1732 25.4934 23.9998 28 23.9998C30.5067 23.9998 34.0134 25.1732 34.5734 26.3732C32.76 27.8132 30.48 28.6665 28 28.6665C25.52 28.6665 23.24 27.8132 21.4267 26.3732ZM36.48 24.4398C34.5734 22.1198 29.9467 21.3332 28 21.3332C26.0534 21.3332 21.4267 22.1198 19.52 24.4398C18.16 22.6532 17.3334 20.4265 17.3334 17.9998C17.3334 12.1198 22.12 7.33317 28 7.33317C33.88 7.33317 38.6667 12.1198 38.6667 17.9998C38.6667 20.4265 37.84 22.6532 36.48 24.4398ZM28 9.99984C25.4134 9.99984 23.3334 12.0798 23.3334 14.6665C23.3334 17.2532 25.4134 19.3332 28 19.3332C30.5867 19.3332 32.6667 17.2532 32.6667 14.6665C32.6667 12.0798 30.5867 9.99984 28 9.99984ZM28 16.6665C26.8934 16.6665 26 15.7732 26 14.6665C26 13.5598 26.8934 12.6665 28 12.6665C29.1067 12.6665 30 13.5598 30 14.6665C30 15.7732 29.1067 16.6665 28 16.6665Z" fill="white"/>
</svg>