<svg width="56" height="40" viewBox="0 0 56 40" fill="none" xmlns="http://www.w3.org/2000/svg">
<rect width="56" height="40" rx="16" fill="#0F69C4"/>
<path d="M28 11.3333V6H14.6667V30H41.3333V11.3333H28ZM20 27.3333H17.3333V24.6667H20V27.3333ZM20 22H17.3333V19.3333H20V22ZM20 16.6667H17.3333V14H20V16.6667ZM20 11.3333H17.3333V8.66667H20V11.3333ZM25.3333 27.3333H22.6667V24.6667H25.3333V27.3333ZM25.3333 22H22.6667V19.3333H25.3333V22ZM25.3333 16.6667H22.6667V14H25.3333V16.6667ZM25.3333 11.3333H22.6667V8.66667H25.3333V11.3333ZM38.6667 27.3333H28V24.6667H30.6667V22H28V19.3333H30.6667V16.6667H28V14H38.6667V27.3333ZM36 16.6667H33.3333V19.3333H36V16.6667ZM36 22H33.3333V24.6667H36V22Z" fill="white"/>
</svg>