<svg width="56" height="40" viewBox="0 0 56 40" fill="none" xmlns="http://www.w3.org/2000/svg">
<rect width="56" height="40" rx="16" fill="#0F69C4"/>
<path d="M40 11.3337C37.7867 11.3337 36 13.1203 36 15.3337C36 15.427 36 15.5203 36.0133 15.6137L33.3067 16.5203C32.4533 14.907 30.88 13.7337 29.0133 13.427V10.547C30.72 10.0937 32 8.53366 32 6.66699C32 4.45366 30.2133 2.66699 28 2.66699C25.7867 2.66699 24 4.45366 24 6.66699C24 8.53366 25.28 10.0937 27 10.547V13.427C25.1333 13.7337 23.56 14.907 22.7067 16.5203L19.9867 15.6137C20 15.5203 20 15.427 20 15.3337C20 13.1203 18.2133 11.3337 16 11.3337C13.7867 11.3337 12 13.1203 12 15.3337C12 17.547 13.7867 19.3337 16 19.3337C17.4133 19.3337 18.64 18.6003 19.36 17.507L22.0667 18.4137C21.8 20.1337 22.2933 21.9603 23.52 23.3337L21.64 25.6937C21.1333 25.4537 20.5867 25.3337 20 25.3337C17.7867 25.3337 16 27.1203 16 29.3337C16 31.547 17.7867 33.3337 20 33.3337C22.2133 33.3337 24 31.547 24 29.3337C24 28.427 23.7067 27.6003 23.2 26.9337L25.08 24.5737C26.8933 25.587 29.1067 25.5737 30.9067 24.5737L32.7867 26.9337C32.2933 27.6003 32 28.427 32 29.3337C32 31.547 33.7867 33.3337 36 33.3337C38.2133 33.3337 40 31.547 40 29.3337C40 27.1203 38.2133 25.3337 36 25.3337C35.4133 25.3337 34.8667 25.4537 34.36 25.6803L32.48 23.3203C33.72 21.9337 34.2 20.1203 33.9333 18.4003L36.64 17.4937C37.3467 18.587 38.5867 19.3203 40 19.3203C42.2133 19.3203 44 17.5337 44 15.3203C44 13.107 42.2133 11.3337 40 11.3337ZM16 16.667C15.2667 16.667 14.6667 16.067 14.6667 15.3337C14.6667 14.6003 15.2667 14.0003 16 14.0003C16.7333 14.0003 17.3333 14.6003 17.3333 15.3337C17.3333 16.067 16.7333 16.667 16 16.667ZM20 30.667C19.2667 30.667 18.6667 30.067 18.6667 29.3337C18.6667 28.6003 19.2667 28.0003 20 28.0003C20.7333 28.0003 21.3333 28.6003 21.3333 29.3337C21.3333 30.067 20.7333 30.667 20 30.667ZM26.6667 6.66699C26.6667 5.93366 27.2667 5.33366 28 5.33366C28.7333 5.33366 29.3333 5.93366 29.3333 6.66699C29.3333 7.40033 28.7333 8.00033 28 8.00033C27.2667 8.00033 26.6667 7.40033 26.6667 6.66699ZM28 22.667C26.16 22.667 24.6667 21.1737 24.6667 19.3337C24.6667 17.4937 26.16 16.0003 28 16.0003C29.84 16.0003 31.3333 17.4937 31.3333 19.3337C31.3333 21.1737 29.84 22.667 28 22.667ZM36 28.0003C36.7333 28.0003 37.3333 28.6003 37.3333 29.3337C37.3333 30.067 36.7333 30.667 36 30.667C35.2667 30.667 34.6667 30.067 34.6667 29.3337C34.6667 28.6003 35.2667 28.0003 36 28.0003ZM40 16.667C39.2667 16.667 38.6667 16.067 38.6667 15.3337C38.6667 14.6003 39.2667 14.0003 40 14.0003C40.7333 14.0003 41.3333 14.6003 41.3333 15.3337C41.3333 16.067 40.7333 16.667 40 16.667Z" fill="white"/>
</svg>