<svg width="56" height="40" viewBox="0 0 56 40" fill="none" xmlns="http://www.w3.org/2000/svg">
<rect width="56" height="40" rx="16" fill="#0F69C4"/>
<path d="M40 5.3335H16C14.5333 5.3335 13.3333 6.5335 13.3333 8.00016V18.6668H16V8.00016H40V29.3335C41.4666 29.3335 42.6666 28.1335 42.6666 26.6668V8.00016C42.6666 6.5335 41.4666 5.3335 40 5.3335Z" fill="white"/>
<path d="M29.3333 14.6668C29.3333 11.7202 26.9466 9.3335 24 9.3335C21.0533 9.3335 18.6666 11.7202 18.6666 14.6668C18.6666 17.6135 21.0533 20.0002 24 20.0002C26.9466 20.0002 29.3333 17.6135 29.3333 14.6668ZM21.3333 14.6668C21.3333 13.2002 22.5333 12.0002 24 12.0002C25.4666 12.0002 26.6666 13.2002 26.6666 14.6668C26.6666 16.1335 25.4666 17.3335 24 17.3335C22.5333 17.3335 21.3333 16.1335 21.3333 14.6668Z" fill="white"/>
<path d="M32.52 23.4135C30.28 22.2668 27.3733 21.3335 24 21.3335C20.6266 21.3335 17.72 22.2668 15.48 23.4135C14.1466 24.0935 13.3333 25.4668 13.3333 26.9602V30.6668H34.6666V26.9602C34.6666 25.4668 33.8533 24.0935 32.52 23.4135ZM32 28.0002H16C16 27.0402 15.8666 26.2135 16.6933 25.7868C18.28 24.9735 20.84 24.0002 24 24.0002C27.16 24.0002 29.72 24.9735 31.3066 25.7868C32.1466 26.2135 32 27.0535 32 28.0002Z" fill="white"/>
</svg>