<svg width="56" height="40" viewBox="0 0 56 40" fill="none" xmlns="http://www.w3.org/2000/svg">
<rect width="56" height="40" rx="16" fill="#0F69C4"/>
<path d="M40.6667 10.6667V20.6667H38V12L31.3333 7.33333L24.6667 12V14H22V10.6667L31.3333 4L40.6667 10.6667ZM33.3333 11.3333H32V12.6667H33.3333V11.3333ZM30.6667 11.3333H29.3333V12.6667H30.6667V11.3333ZM33.3333 14H32V15.3333H33.3333V14ZM30.6667 14H29.3333V15.3333H30.6667V14ZM38 23.3333H35.3333C35.3333 21.7333 34.3333 20.2933 32.84 19.7333L24.6267 16.6667H14V31.3333H22V29.4133L31.3333 32L42 28.6667V27.3333C42 25.12 40.2133 23.3333 38 23.3333ZM16.6667 28.6667V19.3333H19.3333V28.6667H16.6667ZM31.2933 29.2133L22 26.64V19.3333H24.1467L31.9067 22.2267C32.36 22.4 32.6667 22.84 32.6667 23.3333C32.6667 23.3333 30.0133 23.2667 29.6 23.1333L26.4267 22.08L25.5867 24.6133L28.76 25.6667C29.44 25.8933 30.1467 26.0133 30.8667 26.0133H38C38.52 26.0133 38.9867 26.32 39.2 26.76L31.2933 29.2133Z" fill="white"/>
</svg>