<svg width="56" height="40" viewBox="0 0 56 40" fill="none" xmlns="http://www.w3.org/2000/svg">
<rect width="56" height="40" rx="16" fill="#0F69C4"/>
<path d="M38.5067 20.5203C39.8933 20.5203 41.0267 19.387 41.0267 18.0003C41.0267 16.6137 39.8933 15.4803 38.5067 15.4803C37.12 15.4803 35.9867 16.6137 35.9867 18.0003C35.9867 19.387 37.12 20.5203 38.5067 20.5203ZM32.8533 20.2403C34.0933 20.2403 35.0933 19.2403 35.0933 18.0003C35.0933 16.7603 34.0933 15.7603 32.8533 15.7603C31.6133 15.7603 30.6133 16.7603 30.6133 18.0003C30.6133 19.2403 31.6133 20.2403 32.8533 20.2403ZM32.8533 14.5603C34.0933 14.5603 35.0933 13.5603 35.0933 12.3203C35.0933 11.0803 34.0933 10.0803 32.8533 10.0803C31.6133 10.0803 30.6133 11.0803 30.6133 12.3203C30.6133 13.5603 31.6133 14.5603 32.8533 14.5603ZM32.8533 25.907C34.0933 25.907 35.0933 24.907 35.0933 23.667C35.0933 22.427 34.0933 21.427 32.8533 21.427C31.6133 21.427 30.6133 22.427 30.6133 23.667C30.6133 24.8937 31.6133 25.907 32.8533 25.907ZM27.2 19.9603C28.28 19.9603 29.16 19.0803 29.16 18.0003C29.16 16.9203 28.28 16.0403 27.2 16.0403C26.12 16.0403 25.24 16.9203 25.24 18.0003C25.24 19.0803 26.1067 19.9603 27.2 19.9603ZM27.2 14.2803C28.28 14.2803 29.16 13.4003 29.16 12.3203C29.16 11.2403 28.28 10.3603 27.2 10.3603C26.12 10.3603 25.24 11.2403 25.24 12.3203C25.24 13.4003 26.1067 14.2803 27.2 14.2803ZM27.2 25.6403C28.28 25.6403 29.16 24.7603 29.16 23.6803C29.16 22.6003 28.28 21.7203 27.2 21.7203C26.12 21.7203 25.24 22.6003 25.24 23.6803C25.2267 24.7603 26.1067 25.6403 27.2 25.6403ZM27.2 31.3337C28.28 31.3337 29.16 30.4537 29.16 29.3737C29.16 28.2937 28.28 27.4137 27.2 27.4137C26.12 27.4137 25.24 28.2937 25.24 29.3737C25.2267 30.4537 26.1067 31.3337 27.2 31.3337ZM27.2 8.58699C28.28 8.58699 29.16 7.70699 29.16 6.62699C29.16 5.54699 28.28 4.66699 27.2 4.66699C26.12 4.66699 25.24 5.54699 25.24 6.62699C25.24 7.70699 26.1067 8.58699 27.2 8.58699ZM21.5333 19.6803C22.4667 19.6803 23.2133 18.9203 23.2133 18.0003C23.2133 17.0803 22.4533 16.3203 21.5333 16.3203C20.6 16.3203 19.8533 17.0803 19.8533 18.0003C19.8533 18.9203 20.6 19.6803 21.5333 19.6803ZM21.5333 25.347C22.4667 25.347 23.2133 24.587 23.2133 23.667C23.2133 22.7337 22.4533 21.987 21.5333 21.987C20.6 21.987 19.8533 22.747 19.8533 23.667C19.8533 24.587 20.6 25.347 21.5333 25.347ZM21.5333 14.027C22.4667 14.027 23.2133 13.267 23.2133 12.347C23.2133 11.4137 22.4533 10.667 21.5333 10.667C20.6 10.667 19.8533 11.427 19.8533 12.347C19.8533 13.267 20.6 14.027 21.5333 14.027ZM16.3733 19.4003C17.1467 19.4003 17.7733 18.7737 17.7733 18.0003C17.7733 17.227 17.1467 16.6003 16.3733 16.6003C15.6 16.6003 14.9733 17.227 14.9733 18.0003C14.9733 18.7737 15.6 19.4003 16.3733 19.4003Z" fill="white"/>
</svg>