<svg width="56" height="40" viewBox="0 0 56 40" fill="none" xmlns="http://www.w3.org/2000/svg">
<rect width="56" height="40" rx="16" fill="#0F69C4"/>
<path d="M28.296 28.4733C28.056 28.7133 27.6293 28.7533 27.3493 28.4733C27.1093 28.2333 27.0693 27.8067 27.3493 27.5267L31.8693 23.0067L29.9893 21.1267L25.4693 25.6467C25.216 25.9133 24.7893 25.9 24.5227 25.6467C24.2427 25.3667 24.2827 24.94 24.5227 24.7L29.0427 20.18L27.1627 18.3L22.6427 22.82C22.4027 23.06 21.976 23.1 21.696 22.82C21.4427 22.5667 21.4427 22.14 21.696 21.8733L26.216 17.3533L24.3227 15.4733L19.8027 19.9933C19.5627 20.2333 19.136 20.2733 18.856 19.9933C18.6027 19.7267 18.6027 19.3133 18.856 19.0467L24.696 13.2067L27.1893 15.6867C28.456 16.9533 30.6427 16.94 31.9093 15.6867C33.216 14.38 33.216 12.2733 31.9093 10.9667L29.4293 8.48667L29.8027 8.11334C30.8427 7.07334 32.536 7.07334 33.576 8.11334L39.2293 13.7667C40.2693 14.8067 40.2693 16.5 39.2293 17.54L28.296 28.4733ZM41.1093 19.4333C43.1893 17.3533 43.1893 13.98 41.1093 11.8867L35.456 6.23334C33.376 4.15334 30.0027 4.15334 27.9093 6.23334L27.536 6.60667L27.1627 6.23334C25.0827 4.15334 21.7093 4.15334 19.616 6.23334L14.896 10.9533C13.0027 12.8467 12.8293 15.7933 14.3627 17.8733L16.296 15.94C15.776 14.94 15.9493 13.6733 16.7893 12.8333L21.5093 8.11334C22.5493 7.07334 24.2427 7.07334 25.2827 8.11334L30.0293 12.86C30.2693 13.1 30.3093 13.5267 30.0293 13.8067C29.7493 14.0867 29.3227 14.0467 29.0827 13.8067L24.696 9.43334L16.9627 17.1533C15.656 18.4467 15.656 20.5667 16.9627 21.8733C17.4827 22.3933 18.1493 22.7133 18.856 22.8067C18.9493 23.5 19.256 24.1667 19.7893 24.7C20.3227 25.2333 20.9893 25.54 21.6827 25.6333C21.776 26.3267 22.0827 26.9933 22.616 27.5267C23.1493 28.06 23.816 28.3667 24.5093 28.46C24.6027 29.18 24.9227 29.8333 25.4427 30.3533C26.0693 30.98 26.9093 31.3267 27.8027 31.3267C28.696 31.3267 29.536 30.98 30.1627 30.3533L41.1093 19.4333Z" fill="white"/>
</svg>