<svg width="26" height="28" viewBox="0 0 26 28" fill="none" xmlns="http://www.w3.org/2000/svg">
<path d="M22.9094 15.307C22.9627 14.8803 23.0027 14.4537 23.0027 14.0003C23.0027 13.547 22.9627 13.1203 22.9094 12.6937L25.7227 10.4937C25.9761 10.2937 26.0427 9.93366 25.8827 9.64033L23.216 5.02699C23.0961 4.81366 22.8694 4.69366 22.6294 4.69366C22.5494 4.69366 22.4694 4.70699 22.4027 4.73366L19.0827 6.06699C18.3894 5.53366 17.6427 5.09366 16.8294 4.76033L16.3227 1.22699C16.2827 0.906992 16.0027 0.666992 15.6694 0.666992H10.336C10.0027 0.666992 9.72272 0.906992 9.68272 1.22699L9.17605 4.76033C8.36272 5.09366 7.61605 5.54699 6.92272 6.06699L3.60272 4.73366C3.52272 4.70699 3.44272 4.69366 3.36272 4.69366C3.13605 4.69366 2.90938 4.81366 2.78938 5.02699L0.122716 9.64033C-0.0506178 9.93366 0.0293824 10.2937 0.282716 10.4937L3.09605 12.6937C3.04272 13.1203 3.00272 13.5603 3.00272 14.0003C3.00272 14.4403 3.04272 14.8803 3.09605 15.307L0.282716 17.507C0.0293824 17.707 -0.0372845 18.067 0.122716 18.3603L2.78938 22.9737C2.90938 23.187 3.13605 23.307 3.37605 23.307C3.45605 23.307 3.53605 23.2937 3.60272 23.267L6.92272 21.9337C7.61605 22.467 8.36272 22.907 9.17605 23.2403L9.68272 26.7737C9.72272 27.0937 10.0027 27.3337 10.336 27.3337H15.6694C16.0027 27.3337 16.2827 27.0937 16.3227 26.7737L16.8294 23.2403C17.6427 22.907 18.3894 22.4537 19.0827 21.9337L22.4027 23.267C22.4827 23.2937 22.5627 23.307 22.6427 23.307C22.8694 23.307 23.0961 23.187 23.216 22.9737L25.8827 18.3603C26.0427 18.067 25.9761 17.707 25.7227 17.507L22.9094 15.307ZM20.2694 13.027C20.3227 13.4403 20.3361 13.7203 20.3361 14.0003C20.3361 14.2803 20.3094 14.5737 20.2694 14.9737L20.0827 16.4803L21.2694 17.4137L22.7094 18.5337L21.7761 20.147L20.0827 19.467L18.6961 18.907L17.496 19.8137C16.9227 20.2403 16.376 20.5603 15.8294 20.787L14.416 21.3603L14.2027 22.867L13.936 24.667H12.0694L11.6027 21.3603L10.1894 20.787C9.61605 20.547 9.08272 20.2403 8.54938 19.8403L7.33605 18.907L5.92272 19.4803L4.22938 20.1603L3.29605 18.547L4.73605 17.427L5.92272 16.4937L5.73605 14.987C5.69605 14.5737 5.66938 14.267 5.66938 14.0003C5.66938 13.7337 5.69605 13.427 5.73605 13.027L5.92272 11.5203L4.73605 10.587L3.29605 9.46699L4.22938 7.85366L5.92272 8.53366L7.30938 9.09366L8.50938 8.18699C9.08272 7.76033 9.62938 7.44033 10.176 7.21366L11.5894 6.64033L11.8027 5.13366L12.0694 3.33366H13.9227L14.3894 6.64033L15.8027 7.21366C16.3761 7.45366 16.9094 7.76033 17.4427 8.16033L18.656 9.09366L20.0694 8.52033L21.7627 7.84033L22.6961 9.45366L21.2694 10.587L20.0827 11.5203L20.2694 13.027ZM13.0027 8.66699C10.056 8.66699 7.66938 11.0537 7.66938 14.0003C7.66938 16.947 10.056 19.3337 13.0027 19.3337C15.9494 19.3337 18.3361 16.947 18.3361 14.0003C18.3361 11.0537 15.9494 8.66699 13.0027 8.66699ZM13.0027 16.667C11.536 16.667 10.336 15.467 10.336 14.0003C10.336 12.5337 11.536 11.3337 13.0027 11.3337C14.4694 11.3337 15.6694 12.5337 15.6694 14.0003C15.6694 15.467 14.4694 16.667 13.0027 16.667Z" fill="white"/>
</svg>
