<svg width="245" height="66" viewBox="0 0 245 66" fill="none" xmlns="http://www.w3.org/2000/svg">
<path fill-rule="evenodd" clip-rule="evenodd" d="M41 66H110V58H41V66Z" fill="#FF4731"/>
<path fill-rule="evenodd" clip-rule="evenodd" d="M0 66H41V58H0V66Z" fill="#0F69C4"/>
<path d="M4.99219 16.0234L8.34375 6.375H9.97656L5.76562 17.75H4.60156L4.99219 16.0234ZM1.85938 6.375L5.17969 16.0234L5.59375 17.75H4.42969L0.226562 6.375H1.85938ZM14.4531 17.9062C13.8646 17.9062 13.3307 17.8073 12.8516 17.6094C12.3776 17.4062 11.9688 17.1224 11.625 16.7578C11.2865 16.3932 11.026 15.9609 10.8438 15.4609C10.6615 14.9609 10.5703 14.4141 10.5703 13.8203V13.4922C10.5703 12.8047 10.6719 12.1927 10.875 11.6562C11.0781 11.1146 11.3542 10.6562 11.7031 10.2812C12.0521 9.90625 12.4479 9.6224 12.8906 9.42969C13.3333 9.23698 13.7917 9.14062 14.2656 9.14062C14.8698 9.14062 15.3906 9.24479 15.8281 9.45312C16.2708 9.66146 16.6328 9.95312 16.9141 10.3281C17.1953 10.6979 17.4036 11.1354 17.5391 11.6406C17.6745 12.1406 17.7422 12.6875 17.7422 13.2812V13.9297H11.4297V12.75H16.2969V12.6406C16.276 12.2656 16.1979 11.901 16.0625 11.5469C15.9323 11.1927 15.724 10.901 15.4375 10.6719C15.151 10.4427 14.7604 10.3281 14.2656 10.3281C13.9375 10.3281 13.6354 10.3984 13.3594 10.5391C13.0833 10.6745 12.8464 10.8776 12.6484 11.1484C12.4505 11.4193 12.2969 11.75 12.1875 12.1406C12.0781 12.5312 12.0234 12.9818 12.0234 13.4922V13.8203C12.0234 14.2214 12.0781 14.599 12.1875 14.9531C12.3021 15.3021 12.4661 15.6094 12.6797 15.875C12.8984 16.1406 13.1615 16.349 13.4688 16.5C13.7812 16.651 14.1354 16.7266 14.5312 16.7266C15.0417 16.7266 15.474 16.6224 15.8281 16.4141C16.1823 16.2057 16.4922 15.9271 16.7578 15.5781L17.6328 16.2734C17.4505 16.5495 17.2188 16.8125 16.9375 17.0625C16.6562 17.3125 16.3099 17.5156 15.8984 17.6719C15.4922 17.8281 15.0104 17.9062 14.4531 17.9062ZM20.875 10.625V17.75H19.4297V9.29688H20.8359L20.875 10.625ZM23.5156 9.25L23.5078 10.5938C23.388 10.5677 23.2734 10.5521 23.1641 10.5469C23.0599 10.5365 22.9401 10.5312 22.8047 10.5312C22.4714 10.5312 22.1771 10.5833 21.9219 10.6875C21.6667 10.7917 21.4505 10.9375 21.2734 11.125C21.0964 11.3125 20.9557 11.5365 20.8516 11.7969C20.7526 12.0521 20.6875 12.3333 20.6562 12.6406L20.25 12.875C20.25 12.3646 20.2995 11.8854 20.3984 11.4375C20.5026 10.9896 20.6615 10.5938 20.875 10.25C21.0885 9.90104 21.3594 9.63021 21.6875 9.4375C22.0208 9.23958 22.4167 9.14062 22.875 9.14062C22.9792 9.14062 23.099 9.15365 23.2344 9.17969C23.3698 9.20052 23.4635 9.22396 23.5156 9.25ZM29.7734 15.5078C29.7734 15.2995 29.7266 15.1068 29.6328 14.9297C29.5443 14.7474 29.3594 14.5833 29.0781 14.4375C28.8021 14.2865 28.3854 14.1562 27.8281 14.0469C27.3594 13.9479 26.9349 13.8307 26.5547 13.6953C26.1797 13.5599 25.8594 13.3958 25.5938 13.2031C25.3333 13.0104 25.1328 12.7839 24.9922 12.5234C24.8516 12.263 24.7812 11.9583 24.7812 11.6094C24.7812 11.276 24.8542 10.9609 25 10.6641C25.151 10.3672 25.362 10.1042 25.6328 9.875C25.9089 9.64583 26.2396 9.46615 26.625 9.33594C27.0104 9.20573 27.4401 9.14062 27.9141 9.14062C28.5911 9.14062 29.1693 9.26042 29.6484 9.5C30.1276 9.73958 30.4948 10.0599 30.75 10.4609C31.0052 10.8568 31.1328 11.2969 31.1328 11.7812H29.6875C29.6875 11.5469 29.6172 11.3203 29.4766 11.1016C29.3411 10.8776 29.1406 10.6927 28.875 10.5469C28.6146 10.401 28.2943 10.3281 27.9141 10.3281C27.513 10.3281 27.1875 10.3906 26.9375 10.5156C26.6927 10.6354 26.513 10.7891 26.3984 10.9766C26.2891 11.1641 26.2344 11.362 26.2344 11.5703C26.2344 11.7266 26.2604 11.8672 26.3125 11.9922C26.3698 12.112 26.4688 12.224 26.6094 12.3281C26.75 12.4271 26.9479 12.5208 27.2031 12.6094C27.4583 12.6979 27.7839 12.7865 28.1797 12.875C28.8724 13.0312 29.4427 13.2188 29.8906 13.4375C30.3385 13.6562 30.6719 13.9245 30.8906 14.2422C31.1094 14.5599 31.2188 14.9453 31.2188 15.3984C31.2188 15.7682 31.1406 16.1068 30.9844 16.4141C30.8333 16.7214 30.612 16.987 30.3203 17.2109C30.0339 17.4297 29.6901 17.6016 29.2891 17.7266C28.8932 17.8464 28.4479 17.9062 27.9531 17.9062C27.2083 17.9062 26.5781 17.7734 26.0625 17.5078C25.5469 17.2422 25.1562 16.8984 24.8906 16.4766C24.625 16.0547 24.4922 15.6094 24.4922 15.1406H25.9453C25.9661 15.5365 26.0807 15.8516 26.2891 16.0859C26.4974 16.3151 26.7526 16.4792 27.0547 16.5781C27.3568 16.6719 27.6562 16.7188 27.9531 16.7188C28.349 16.7188 28.6797 16.6667 28.9453 16.5625C29.2161 16.4583 29.4219 16.3151 29.5625 16.1328C29.7031 15.9505 29.7734 15.7422 29.7734 15.5078ZM34.6875 9.29688V17.75H33.2344V9.29688H34.6875ZM33.125 7.05469C33.125 6.82031 33.1953 6.6224 33.3359 6.46094C33.4818 6.29948 33.6953 6.21875 33.9766 6.21875C34.2526 6.21875 34.4635 6.29948 34.6094 6.46094C34.7604 6.6224 34.8359 6.82031 34.8359 7.05469C34.8359 7.27865 34.7604 7.47135 34.6094 7.63281C34.4635 7.78906 34.2526 7.86719 33.9766 7.86719C33.6953 7.86719 33.4818 7.78906 33.3359 7.63281C33.1953 7.47135 33.125 7.27865 33.125 7.05469ZM36.625 13.6172V13.4375C36.625 12.8281 36.7135 12.263 36.8906 11.7422C37.0677 11.2161 37.3229 10.7604 37.6562 10.375C37.9896 9.98438 38.3932 9.68229 38.8672 9.46875C39.3411 9.25 39.8724 9.14062 40.4609 9.14062C41.0547 9.14062 41.5885 9.25 42.0625 9.46875C42.5417 9.68229 42.9479 9.98438 43.2812 10.375C43.6198 10.7604 43.8776 11.2161 44.0547 11.7422C44.2318 12.263 44.3203 12.8281 44.3203 13.4375V13.6172C44.3203 14.2266 44.2318 14.7917 44.0547 15.3125C43.8776 15.8333 43.6198 16.2891 43.2812 16.6797C42.9479 17.0651 42.5443 17.3672 42.0703 17.5859C41.6016 17.7995 41.0703 17.9062 40.4766 17.9062C39.8828 17.9062 39.349 17.7995 38.875 17.5859C38.401 17.3672 37.9948 17.0651 37.6562 16.6797C37.3229 16.2891 37.0677 15.8333 36.8906 15.3125C36.7135 14.7917 36.625 14.2266 36.625 13.6172ZM38.0703 13.4375V13.6172C38.0703 14.0391 38.1198 14.4375 38.2188 14.8125C38.3177 15.1823 38.4661 15.5104 38.6641 15.7969C38.8672 16.0833 39.1198 16.3099 39.4219 16.4766C39.724 16.638 40.0755 16.7188 40.4766 16.7188C40.8724 16.7188 41.2188 16.638 41.5156 16.4766C41.8177 16.3099 42.0677 16.0833 42.2656 15.7969C42.4635 15.5104 42.612 15.1823 42.7109 14.8125C42.8151 14.4375 42.8672 14.0391 42.8672 13.6172V13.4375C42.8672 13.0208 42.8151 12.6276 42.7109 12.2578C42.612 11.8828 42.4609 11.5521 42.2578 11.2656C42.0599 10.974 41.8099 10.7448 41.5078 10.5781C41.2109 10.4115 40.862 10.3281 40.4609 10.3281C40.0651 10.3281 39.7161 10.4115 39.4141 10.5781C39.1172 10.7448 38.8672 10.974 38.6641 11.2656C38.4661 11.5521 38.3177 11.8828 38.2188 12.2578C38.1198 12.6276 38.0703 13.0208 38.0703 13.4375ZM39.6016 8.04688L41.1172 5.75H42.8594L40.7656 8.04688H39.6016ZM47.5781 11.1016V17.75H46.1328V9.29688H47.5L47.5781 11.1016ZM47.2344 13.2031L46.6328 13.1797C46.638 12.6016 46.724 12.0677 46.8906 11.5781C47.0573 11.0833 47.2917 10.6536 47.5938 10.2891C47.8958 9.92448 48.2552 9.64323 48.6719 9.44531C49.0938 9.24219 49.5599 9.14062 50.0703 9.14062C50.487 9.14062 50.862 9.19792 51.1953 9.3125C51.5286 9.42188 51.8125 9.59896 52.0469 9.84375C52.2865 10.0885 52.4688 10.4062 52.5938 10.7969C52.7188 11.1823 52.7812 11.6536 52.7812 12.2109V17.75H51.3281V12.1953C51.3281 11.7526 51.263 11.3984 51.1328 11.1328C51.0026 10.862 50.8125 10.6667 50.5625 10.5469C50.3125 10.4219 50.0052 10.3594 49.6406 10.3594C49.2812 10.3594 48.9531 10.4349 48.6562 10.5859C48.3646 10.737 48.112 10.9453 47.8984 11.2109C47.6901 11.4766 47.526 11.7812 47.4062 12.125C47.2917 12.4635 47.2344 12.8229 47.2344 13.2031ZM70.2109 16.5625V17.75H62.7656V16.7109L66.4922 12.5625C66.9505 12.0521 67.3047 11.6198 67.5547 11.2656C67.8099 10.9062 67.987 10.5859 68.0859 10.3047C68.1901 10.0182 68.2422 9.72656 68.2422 9.42969C68.2422 9.05469 68.1641 8.71615 68.0078 8.41406C67.8568 8.10677 67.6328 7.86198 67.3359 7.67969C67.0391 7.4974 66.6797 7.40625 66.2578 7.40625C65.7526 7.40625 65.3307 7.50521 64.9922 7.70312C64.6589 7.89583 64.4089 8.16667 64.2422 8.51562C64.0755 8.86458 63.9922 9.26562 63.9922 9.71875H62.5469C62.5469 9.07812 62.6875 8.49219 62.9688 7.96094C63.25 7.42969 63.6667 7.00781 64.2188 6.69531C64.7708 6.3776 65.4505 6.21875 66.2578 6.21875C66.9766 6.21875 67.5911 6.34635 68.1016 6.60156C68.612 6.85156 69.0026 7.20573 69.2734 7.66406C69.5495 8.11719 69.6875 8.64844 69.6875 9.25781C69.6875 9.59115 69.6302 9.92969 69.5156 10.2734C69.4062 10.612 69.2526 10.9505 69.0547 11.2891C68.862 11.6276 68.6354 11.9609 68.375 12.2891C68.1198 12.6172 67.8464 12.9401 67.5547 13.2578L64.5078 16.5625H70.2109Z" fill="white"/>
</svg>
